<mxfile host="app.diagrams.net" agent="Mozilla/5.0 (Windows NT 10.0; Win64; x64) AppleWebKit/537.36 (KHTML, like Gecko) Chrome/127.0.0.0 Safari/537.36 Edg/127.0.0.0" version="24.7.6">
  <diagram name="Page-1" id="n9veS_rIt1G9gAcSK4r4">
    <mxGraphModel dx="1664" dy="874" grid="1" gridSize="10" guides="1" tooltips="1" connect="1" arrows="1" fold="1" page="1" pageScale="1" pageWidth="850" pageHeight="1100" math="0" shadow="0">
      <root>
        <mxCell id="0" />
        <mxCell id="1" parent="0" />
        <mxCell id="YGWYb1bsDeqYZ1EMDr0_-12" style="edgeStyle=none;rounded=0;orthogonalLoop=1;jettySize=auto;html=1;entryX=0;entryY=0.5;entryDx=0;entryDy=0;" edge="1" parent="1" target="YGWYb1bsDeqYZ1EMDr0_-2">
          <mxGeometry relative="1" as="geometry">
            <mxPoint x="130" y="530" as="sourcePoint" />
          </mxGeometry>
        </mxCell>
        <mxCell id="YGWYb1bsDeqYZ1EMDr0_-13" style="edgeStyle=none;rounded=0;orthogonalLoop=1;jettySize=auto;html=1;exitX=1;exitY=0.3333333333333333;exitDx=0;exitDy=0;exitPerimeter=0;entryX=0;entryY=0.5;entryDx=0;entryDy=0;" edge="1" parent="1" source="YGWYb1bsDeqYZ1EMDr0_-1" target="YGWYb1bsDeqYZ1EMDr0_-3">
          <mxGeometry relative="1" as="geometry" />
        </mxCell>
        <mxCell id="YGWYb1bsDeqYZ1EMDr0_-14" style="edgeStyle=none;rounded=0;orthogonalLoop=1;jettySize=auto;html=1;exitX=1;exitY=0.3333333333333333;exitDx=0;exitDy=0;exitPerimeter=0;entryX=0;entryY=0.5;entryDx=0;entryDy=0;" edge="1" parent="1" source="YGWYb1bsDeqYZ1EMDr0_-1" target="YGWYb1bsDeqYZ1EMDr0_-5">
          <mxGeometry relative="1" as="geometry" />
        </mxCell>
        <mxCell id="YGWYb1bsDeqYZ1EMDr0_-15" style="edgeStyle=none;rounded=0;orthogonalLoop=1;jettySize=auto;html=1;exitX=1;exitY=0.3333333333333333;exitDx=0;exitDy=0;exitPerimeter=0;entryX=0;entryY=0.5;entryDx=0;entryDy=0;" edge="1" parent="1" source="YGWYb1bsDeqYZ1EMDr0_-1" target="YGWYb1bsDeqYZ1EMDr0_-6">
          <mxGeometry relative="1" as="geometry" />
        </mxCell>
        <mxCell id="YGWYb1bsDeqYZ1EMDr0_-16" style="edgeStyle=none;rounded=0;orthogonalLoop=1;jettySize=auto;html=1;exitX=1;exitY=0.3333333333333333;exitDx=0;exitDy=0;exitPerimeter=0;entryX=0;entryY=0.5;entryDx=0;entryDy=0;" edge="1" parent="1" source="YGWYb1bsDeqYZ1EMDr0_-1" target="YGWYb1bsDeqYZ1EMDr0_-7">
          <mxGeometry relative="1" as="geometry" />
        </mxCell>
        <mxCell id="YGWYb1bsDeqYZ1EMDr0_-17" style="edgeStyle=none;rounded=0;orthogonalLoop=1;jettySize=auto;html=1;exitX=1;exitY=0.3333333333333333;exitDx=0;exitDy=0;exitPerimeter=0;entryX=0;entryY=0.5;entryDx=0;entryDy=0;" edge="1" parent="1" source="YGWYb1bsDeqYZ1EMDr0_-1" target="YGWYb1bsDeqYZ1EMDr0_-8">
          <mxGeometry relative="1" as="geometry" />
        </mxCell>
        <mxCell id="YGWYb1bsDeqYZ1EMDr0_-1" value="Anggota" style="shape=umlActor;verticalLabelPosition=bottom;verticalAlign=top;html=1;outlineConnect=0;" vertex="1" parent="1">
          <mxGeometry x="50" y="480" width="80" height="160" as="geometry" />
        </mxCell>
        <mxCell id="YGWYb1bsDeqYZ1EMDr0_-2" value="Mendaftar Akun" style="ellipse;whiteSpace=wrap;html=1;" vertex="1" parent="1">
          <mxGeometry x="190" y="230" width="140" height="70" as="geometry" />
        </mxCell>
        <mxCell id="YGWYb1bsDeqYZ1EMDr0_-3" value="Login" style="ellipse;whiteSpace=wrap;html=1;" vertex="1" parent="1">
          <mxGeometry x="190" y="320" width="140" height="70" as="geometry" />
        </mxCell>
        <mxCell id="YGWYb1bsDeqYZ1EMDr0_-4" value="Mencari Buku" style="ellipse;whiteSpace=wrap;html=1;" vertex="1" parent="1">
          <mxGeometry x="190" y="410" width="140" height="70" as="geometry" />
        </mxCell>
        <mxCell id="YGWYb1bsDeqYZ1EMDr0_-5" value="Mencari Buku" style="ellipse;whiteSpace=wrap;html=1;" vertex="1" parent="1">
          <mxGeometry x="190" y="500" width="140" height="70" as="geometry" />
        </mxCell>
        <mxCell id="YGWYb1bsDeqYZ1EMDr0_-6" value="Meminjam Buku" style="ellipse;whiteSpace=wrap;html=1;" vertex="1" parent="1">
          <mxGeometry x="190" y="590" width="140" height="70" as="geometry" />
        </mxCell>
        <mxCell id="YGWYb1bsDeqYZ1EMDr0_-7" value="Mengembalikan Buku" style="ellipse;whiteSpace=wrap;html=1;" vertex="1" parent="1">
          <mxGeometry x="190" y="680" width="140" height="70" as="geometry" />
        </mxCell>
        <mxCell id="YGWYb1bsDeqYZ1EMDr0_-8" value="Melihat Riwayat Peminjaman" style="ellipse;whiteSpace=wrap;html=1;" vertex="1" parent="1">
          <mxGeometry x="190" y="780" width="140" height="70" as="geometry" />
        </mxCell>
      </root>
    </mxGraphModel>
  </diagram>
</mxfile>
